<svg width="193" height="40" viewBox="0 0 193 40" fill="none" xmlns="http://www.w3.org/2000/svg">
<path d="M9.7941 16.2288H20.4608C25.8699 16.2288 30.2549 20.6328 30.2578 26.0668C30.2578 31.4993 25.8729 35.9033 20.4637 35.9033H18.2829L20.2612 32.4606H20.4623C23.979 32.4606 26.8285 29.5973 26.8285 26.0668C26.8285 22.5348 23.9776 19.673 20.4623 19.673H9.7941C4.38498 19.673 0 15.269 0 9.8365C0 4.40396 4.38498 0 9.7941 0H27.1111L25.1313 3.44124H9.7941C6.27737 3.44124 3.42786 6.30308 3.42786 9.83503C3.42786 13.367 6.27883 16.2288 9.7941 16.2288Z" fill="white"/>
<path d="M11.9502 40L2.15898 22.9767L6.07196 22.9679L11.9502 33.1863L17.824 22.9679H21.7414L11.9502 40Z" fill="white"/>
<path d="M23.7008 12.7466H27.6182L34.9634 0H31.046L23.7008 12.7466Z" fill="#B4FF55"/>
<path d="M141.929 15.0466C141.696 13.5543 140.443 11.5059 137.559 11.5059C135.228 11.5059 133.567 13.0275 133.567 14.9588C133.567 16.4512 134.47 17.5924 136.218 17.9729L139.307 18.6459C142.745 19.4067 144.668 21.5721 144.668 24.4691C144.668 27.6879 141.929 30.6141 137.53 30.6141C132.547 30.6141 130.187 27.3953 129.809 24.4398L132.547 23.5619C132.751 25.8737 134.383 28.0098 137.5 28.0098C140.356 28.0098 141.754 26.5174 141.754 24.7032C141.754 23.2108 140.735 21.9233 138.666 21.4843L135.723 20.8406C132.78 20.1968 130.683 18.2655 130.683 15.1637C130.683 11.9156 133.684 8.98935 137.5 8.98935C142.162 8.98935 144.027 11.8863 144.493 14.1395L141.929 15.0466Z" fill="white"/>
<path d="M123.457 9.42829H120.456L114.162 26.4882L107.927 9.42829H104.897L112.677 30.1752H115.503L123.457 9.42829Z" fill="white"/>
<path d="M124.768 9.42829V30.1752H127.682V9.42829H124.768Z" fill="white"/>
<path d="M146.997 9.42829V30.1752H149.911V9.42829H146.997Z" fill="white"/>
<path fill-rule="evenodd" clip-rule="evenodd" d="M162.614 8.98935C167.801 8.98935 172.987 12.852 172.987 19.7871C172.987 26.7223 167.801 30.6141 162.614 30.6141C157.428 30.6141 152.242 26.7223 152.242 19.7871C152.242 12.852 157.428 8.98935 162.614 8.98935ZM162.614 27.9805C166.46 27.9805 170.073 25.2006 170.073 19.7871C170.073 14.3736 166.46 11.623 162.614 11.623C158.768 11.623 155.155 14.3736 155.155 19.7871C155.155 25.2006 158.768 27.9805 162.614 27.9805Z" fill="white"/>
<path d="M178.173 13.2616L189.332 30.1752H192.304V9.42829H189.449V25.3469L179.134 9.42829H175.318V30.1752H178.173V13.2616Z" fill="white"/>
<path d="M46.995 12.0911C49.763 12.0911 50.841 13.9932 51.045 15.2807L54.1917 14.2858C53.7255 11.9741 51.8316 8.98935 46.9659 8.98935C43.1199 8.98935 39.9441 11.8571 39.9441 15.3393C39.9441 18.4411 42.0419 20.5187 45.1886 21.1624L48.1022 21.7769C49.8795 22.1574 50.8701 23.2401 50.8701 24.5861C50.8701 26.1955 49.5882 27.4538 47.1116 27.4538C44.1397 27.4538 42.5955 25.464 42.3915 23.2986L39.1283 24.235C39.4488 27.2197 41.8671 30.6141 47.1116 30.6141C51.8316 30.6141 54.4248 27.5416 54.4248 24.3228C54.4248 21.3965 52.4726 19.0848 48.8306 18.3533L45.8587 17.7388C44.2563 17.3876 43.4404 16.3927 43.4404 15.0759C43.4404 13.4957 44.8972 12.0911 46.995 12.0911Z" fill="#B4FF55"/>
<path d="M64.4767 30.1752V12.7349H71.2071V9.42829H54.2791V12.7349H60.9804V30.1752H64.4767Z" fill="#B4FF55"/>
<path fill-rule="evenodd" clip-rule="evenodd" d="M74.0057 24.9665L72.0827 30.1752H68.3824L76.424 9.42829H80.4739L88.5154 30.1752H84.6986L82.7465 24.9665H74.0057ZM81.5228 21.7184L78.3761 13.2324L75.2294 21.7184H81.5228Z" fill="#B4FF55"/>
<path d="M103.519 9.42829H103.521L107.015 18.7512V30.1752H103.373L93.1772 14.4614V30.1752H89.6809V9.42829H94.1387L103.519 24.1472V9.42829Z" fill="#B4FF55"/>
</svg>
