<svg width="8" height="14" viewBox="0 0 8 14" fill="none" xmlns="http://www.w3.org/2000/svg">
<path fill-rule="evenodd" clip-rule="evenodd" d="M0.646001 0.646001C0.692447 0.599438 0.747622 0.562495 0.808367 0.537289C0.869112 0.512082 0.934234 0.499107 1 0.499107C1.06577 0.499107 1.13089 0.512082 1.19163 0.537289C1.25238 0.562495 1.30756 0.599438 1.354 0.646001L7.354 6.646C7.40056 6.69245 7.43751 6.74762 7.46271 6.80837C7.48792 6.86911 7.50089 6.93423 7.50089 7C7.50089 7.06577 7.48792 7.13089 7.46271 7.19163C7.43751 7.25238 7.40056 7.30756 7.354 7.354L1.354 13.354C1.26011 13.4479 1.13278 13.5006 1 13.5006C0.867225 13.5006 0.739887 13.4479 0.646001 13.354C0.552114 13.2601 0.499369 13.1328 0.499369 13C0.499369 12.8672 0.552114 12.7399 0.646001 12.646L6.293 7L0.646001 1.354C0.599438 1.30756 0.562495 1.25238 0.537288 1.19163C0.512082 1.13089 0.499107 1.06577 0.499107 1C0.499107 0.934234 0.512082 0.869113 0.537288 0.808368C0.562495 0.747622 0.599438 0.692447 0.646001 0.646001V0.646001Z" fill="black"/>
</svg>
