<svg width="142" height="20" viewBox="0 0 142 20" fill="none" xmlns="http://www.w3.org/2000/svg">
<path d="M12.5812 15.4189C12.5812 18.0252 10.5813 19.6064 7.05625 19.6064C2.98125 19.6064 0.95625 17.5002 0.875 14.7627H3.48125C3.6125 16.3189 4.53125 17.5252 7.03125 17.5252C9.29375 17.5252 9.9 16.5252 9.9 15.5502C9.9 13.8689 8.1125 13.6814 6.375 13.3127C4.03125 12.7877 1.35 12.0752 1.35 9.28769C1.35 6.9752 3.21875 5.41895 6.48125 5.41895C10.1375 5.41895 11.9 7.39395 12.0875 9.70645H9.48125C9.29375 8.68145 8.76875 7.5002 6.50625 7.5002C4.79375 7.5002 4.03125 8.1877 4.03125 9.18145C4.03125 10.5752 5.53125 10.6814 7.45 11.1314C9.9 11.7064 12.5812 12.4189 12.5812 15.4189Z" fill="white"/>
<path d="M15.2254 5.8125V1.5H17.8004V5.8125H20.3816V7.94375H17.8004V15.525C17.8004 16.9438 18.1941 17.2625 19.3004 17.2625C19.7254 17.2625 19.9316 17.2375 20.4066 17.1563V19.2375C19.7254 19.3688 19.3316 19.3938 18.7504 19.3938C16.5629 19.3938 15.2254 18.55 15.2254 15.4437V7.94375H13.2754V5.8125H15.2254Z" fill="white"/>
<path d="M21.5938 15.7623C21.5938 12.7623 23.8562 11.8936 27.2 11.2373C29.3062 10.8436 30.5937 10.5811 30.5937 9.2623C30.5937 8.2873 30.0125 7.4748 28.0438 7.4748C25.7 7.4748 24.9875 8.2123 24.8625 9.9998H22.2312C22.3625 7.41855 24.0437 5.39355 28.15 5.39355C30.9125 5.39355 33.125 6.54981 33.125 10.0248V16.1811C33.125 17.1561 33.2563 17.6561 33.7563 17.6561C33.8375 17.6561 33.9125 17.6561 34.0688 17.6311V19.2061C33.625 19.3123 33.175 19.3623 32.7562 19.3623C31.4937 19.3623 30.7812 18.8623 30.65 17.3373H30.5937C29.7 18.7311 28.175 19.5998 25.9875 19.5998C23.3062 19.6061 21.5938 18.0498 21.5938 15.7623ZM30.5937 13.9998V12.0811C30.175 12.4748 29.0125 12.7686 27.65 13.0561C25.2812 13.5561 24.3063 14.1873 24.3063 15.5811C24.3063 16.8436 24.9625 17.5248 26.5687 17.5248C28.8875 17.5248 30.5937 16.3373 30.5937 13.9998Z" fill="white"/>
<path d="M36.0254 5.8127H38.6004V7.5002H38.6566C39.3629 6.4752 40.7629 5.41895 43.0754 5.41895C45.5504 5.41895 47.5504 6.8377 47.5504 9.91895V19.2314H44.9441V10.6314C44.9441 8.84395 44.1566 7.63145 42.2316 7.63145C40.0191 7.63145 38.6004 8.9752 38.6004 11.0002V19.2377H36.0254V5.8127Z" fill="white"/>
<path d="M50.2373 11.8686V9.4248H55.0811V4.4248H57.5248V9.4248H62.3686V11.8686H57.5248V16.8686H55.0811V11.8686H50.2373Z" fill="#FDC026"/>
<path d="M66.7436 5.8125L70.2436 16.575H70.2936L73.7436 5.8125H76.4561L71.6686 19.2313H68.7748L63.9873 5.8125H66.7436Z" fill="white"/>
<path d="M80.5691 0.630859V3.41836H77.6504V0.630859H80.5691ZM80.4129 5.81211V19.2309H77.8379V5.81211H80.4129Z" fill="white"/>
<path d="M93.9123 15.4189C93.9123 18.0252 91.9123 19.6064 88.3873 19.6064C84.3123 19.6064 82.2811 17.5002 82.2061 14.7627H84.8123C84.9436 16.3189 85.8623 17.5252 88.3623 17.5252C90.6248 17.5252 91.2311 16.5252 91.2311 15.5502C91.2311 13.8689 89.4436 13.6814 87.706 13.3127C85.3623 12.7877 82.6811 12.0752 82.6811 9.28769C82.6811 6.9752 84.5498 5.41895 87.8123 5.41895C91.4686 5.41895 93.2311 7.39395 93.4186 9.70645H90.8123C90.6311 8.68145 90.1061 7.49395 87.8373 7.49395C86.1248 7.49395 85.3623 8.18145 85.3623 9.1752C85.3623 10.5689 86.8623 10.6752 88.7811 11.1252C91.2248 11.7064 93.9123 12.4189 93.9123 15.4189Z" fill="white"/>
<path d="M98.4998 0.630859V3.41836H95.5811V0.630859H98.4998ZM98.3373 5.81211V19.2309H95.7623V5.81211H98.3373Z" fill="white"/>
<path d="M100.338 12.5248C100.338 8.33731 102.863 5.39355 107.05 5.39355C111.238 5.39355 113.763 8.3123 113.763 12.4998C113.763 16.7123 111.238 19.6311 107.05 19.6311C102.863 19.6311 100.338 16.7373 100.338 12.5248ZM111.075 12.5248C111.075 9.70606 109.788 7.5498 107.05 7.5498C104.288 7.5498 103.025 9.70606 103.025 12.5248C103.025 15.3123 104.288 17.4998 107.05 17.4998C109.788 17.4998 111.075 15.3123 111.075 12.5248Z" fill="white"/>
<path d="M115.769 5.8127H118.344V7.5002H118.4C119.106 6.4752 120.506 5.41895 122.819 5.41895C125.294 5.41895 127.294 6.8377 127.294 9.91895V19.2314H124.687V10.6314C124.687 8.84395 123.9 7.63145 121.975 7.63145C119.762 7.63145 118.344 8.9752 118.344 11.0002V19.2377H115.769V5.8127Z" fill="white"/>
<path d="M129.356 6.36875C129.356 2.7125 132.119 0 135.619 0C139.144 0 141.906 2.7125 141.906 6.36875C141.906 10.025 139.144 12.7375 135.619 12.7375C132.119 12.7375 129.356 10.025 129.356 6.36875ZM140.669 6.36875C140.669 3.2875 138.513 1.08125 135.619 1.08125C132.75 1.08125 130.594 3.29375 130.594 6.36875C130.594 9.44375 132.75 11.6563 135.619 11.6563C138.513 11.6563 140.669 9.44375 140.669 6.36875ZM132.988 2.84375H135.906C137.563 2.84375 138.431 3.58125 138.431 4.89375C138.431 5.86875 137.825 6.45 136.956 6.65625V6.68125C138.719 6.96875 138.169 9.63125 138.563 9.7625V9.84375H136.8C136.456 9.525 137.038 7.36875 135.381 7.36875H134.725V9.84375H132.988V2.84375ZM135.456 5.975C136.144 5.975 136.769 5.81875 136.769 5.05625C136.769 4.29375 136.138 4.1625 135.456 4.1625H134.719V5.975H135.456Z" fill="white"/>
</svg>
